<?xml version="1.0" encoding="UTF-8" standalone="no"?>
<!-- Created with Inkscape (http://www.inkscape.org/) -->

<svg
   xmlns:dc="http://purl.org/dc/elements/1.1/"
   xmlns:cc="http://creativecommons.org/ns#"
   xmlns:rdf="http://www.w3.org/1999/02/22-rdf-syntax-ns#"
   xmlns:svg="http://www.w3.org/2000/svg"
   xmlns="http://www.w3.org/2000/svg"
   xmlns:xlink="http://www.w3.org/1999/xlink"
   xmlns:sodipodi="http://sodipodi.sourceforge.net/DTD/sodipodi-0.dtd"
   xmlns:inkscape="http://www.inkscape.org/namespaces/inkscape"
   width="210mm"
   height="297mm"
   viewBox="0 0 744.09448819 1052.3622047"
   id="svg2"
   version="1.1"
   inkscape:version="0.91 r13725"
   sodipodi:docname="newtons-head.svg">
  <defs
     id="defs4">
    <linearGradient
       inkscape:collect="always"
       id="linearGradient4230">
      <stop
         style="stop-color:#9a9a9a;stop-opacity:1"
         offset="0"
         id="stop4232" />
      <stop
         style="stop-color:#b1b1b1;stop-opacity:1"
         offset="1"
         id="stop4234" />
    </linearGradient>
    <linearGradient
       inkscape:collect="always"
       id="linearGradient4186">
      <stop
         style="stop-color:#fff1c7;stop-opacity:1"
         offset="0"
         id="stop4188" />
      <stop
         style="stop-color:#fff6d8;stop-opacity:1"
         offset="1"
         id="stop4190" />
    </linearGradient>
    <radialGradient
       inkscape:collect="always"
       xlink:href="#linearGradient4186"
       id="radialGradient4192"
       cx="363.70148"
       cy="289.13096"
       fx="363.70148"
       fy="289.13096"
       r="144.5278"
       gradientTransform="matrix(1,0,0,1.2066279,0,-59.742529)"
       gradientUnits="userSpaceOnUse" />
    <linearGradient
       inkscape:collect="always"
       xlink:href="#linearGradient4230"
       id="linearGradient4236"
       x1="149.45884"
       y1="273.78605"
       x2="545.90466"
       y2="273.78605"
       gradientUnits="userSpaceOnUse" />
  </defs>
  <sodipodi:namedview
     id="base"
     pagecolor="#ffffff"
     bordercolor="#666666"
     borderopacity="1.0"
     inkscape:pageopacity="0.0"
     inkscape:pageshadow="2"
     inkscape:zoom="0.35"
     inkscape:cx="242.25663"
     inkscape:cy="467.73806"
     inkscape:document-units="px"
     inkscape:current-layer="layer1"
     showgrid="false"
     inkscape:window-width="966"
     inkscape:window-height="840"
     inkscape:window-x="-7"
     inkscape:window-y="0"
     inkscape:window-maximized="0" />
  <metadata
     id="metadata7">
    <rdf:RDF>
      <cc:Work
         rdf:about="">
        <dc:format>image/svg+xml</dc:format>
        <dc:type
           rdf:resource="http://purl.org/dc/dcmitype/StillImage" />
        <dc:title></dc:title>
      </cc:Work>
    </rdf:RDF>
  </metadata>
  <g
     inkscape:label="Layer 1"
     inkscape:groupmode="layer"
     id="layer1">
    <path
       style="opacity:1;fill:url(#radialGradient4192);fill-opacity:1;fill-rule:evenodd;stroke:#a78a5d;stroke-width:4.179;stroke-miterlimit:4;stroke-dasharray:none;stroke-opacity:1"
       d="m 506.12477,292.95396 c -0.56766,36.95256 -59.70929,106.56729 -91.13343,138.79282 -31.42413,32.22553 -33.11047,29.08217 -60.1889,29.61501 -33.28729,0.65501 -40.02679,-2.76977 -61.84416,-32.66949 -13.78859,-18.89664 -71.69507,-88.11299 -71.69507,-136.74849 0,-97.27101 66.90452,-175.11459 144.45108,-175.1146 77.54656,0 141.5458,102.21963 140.41048,176.12475 z"
       id="path4136"
       inkscape:connector-curvature="0"
       sodipodi:nodetypes="sssssss" />
    <path
       style="fill:url(#linearGradient4236);fill-opacity:1;fill-rule:evenodd;stroke:#626262;stroke-width:1px;stroke-linecap:butt;stroke-linejoin:miter;stroke-opacity:1"
       d="m 380,166.64792 c -34.73096,-1.38702 -102.85714,17.14286 -102.85714,17.14286 0,0 6.47915,159.76557 -37.14286,220 -11.99395,16.56157 -34.26869,32.74985 -54.28571,28.57142 -17.90863,-3.73831 -31.27771,-24.81148 -34.28572,-42.85714 -15.3051,-91.81833 94.28572,-262.85714 94.28572,-262.85714 0,0 90.09035,-36.829298 137.14285,-34.285715 38.51226,2.081911 108.57143,39.999995 108.57143,39.999995 0,0 83.36338,201.98552 42.85714,291.42858 -7.9555,17.56679 -29.35488,33.0431 -48.57142,31.42857 -15.44921,-1.29801 -27.95862,-17.27475 -34.28572,-31.42857 -32.65066,-73.04 -2.85714,-240 -2.85714,-240 0,0 -45.02959,-16.20269 -68.57143,-17.14286 z"
       id="path4138"
       inkscape:connector-curvature="0"
       sodipodi:nodetypes="acssscscsssca" />
    <path
       style="opacity:0.5;fill:#ffffff;fill-opacity:1;fill-rule:evenodd;stroke:#4b2d00;stroke-width:3.90700006;stroke-miterlimit:4;stroke-dasharray:none;stroke-opacity:1"
       id="path4148"
       sodipodi:type="arc"
       sodipodi:cx="318.72519"
       sodipodi:cy="261.32291"
       sodipodi:rx="26.040123"
       sodipodi:ry="16.748854"
       sodipodi:start="0.26156747"
       sodipodi:end="0.26149375"
       d="m 343.87958,265.65408 a 26.040123,16.748854 0 0 1 -31.88777,11.84806 26.040123,16.748854 0 0 1 -18.42126,-20.50981 26.040123,16.748854 0 0 1 31.88709,-11.84882 26.040123,16.748854 0 0 1 18.42244,20.50937"
       inkscape:transform-center-x="-0.54998302"
       inkscape:transform-center-y="1.6310501e-005"
       sodipodi:open="true" />
    <path
       style="opacity:1;fill:#000000;fill-opacity:1;fill-rule:evenodd;stroke:#42485f;stroke-width:7.17000008;stroke-miterlimit:4;stroke-dasharray:none;stroke-opacity:1"
       id="path4152"
       sodipodi:type="arc"
       sodipodi:cx="318.90378"
       sodipodi:cy="261.5015"
       sodipodi:rx="11.157128"
       sodipodi:ry="12.228598"
       sodipodi:start="0.26156726"
       sodipodi:end="0.26149396"
       sodipodi:open="true"
       d="m 329.68141,264.66375 a 11.157128,12.228598 0 0 1 -13.66261,8.65046 11.157128,12.228598 0 0 1 -7.89276,-14.97453 11.157128,12.228598 0 0 1 13.66232,-8.65101 11.157128,12.228598 0 0 1 7.89326,14.97421" />
    <path
       sodipodi:open="true"
       inkscape:transform-center-y="1.6310501e-005"
       inkscape:transform-center-x="-0.54998302"
       d="m 417.62073,265.65411 a 26.040123,16.748854 0 0 1 -31.88777,11.84806 26.040123,16.748854 0 0 1 -18.42126,-20.50981 26.040123,16.748854 0 0 1 31.88709,-11.84882 26.040123,16.748854 0 0 1 18.42244,20.50937"
       sodipodi:end="0.26149375"
       sodipodi:start="0.26156747"
       sodipodi:ry="16.748854"
       sodipodi:rx="26.040123"
       sodipodi:cy="261.32294"
       sodipodi:cx="392.46634"
       sodipodi:type="arc"
       id="path4154"
       style="opacity:0.5;fill:#ffffff;fill-opacity:1;fill-rule:evenodd;stroke:#4b2d00;stroke-width:3.90700006;stroke-miterlimit:4;stroke-dasharray:none;stroke-opacity:1" />
    <path
       d="m 403.42256,264.66378 a 11.157128,12.228598 0 0 1 -13.66261,8.65046 11.157128,12.228598 0 0 1 -7.89276,-14.97453 11.157128,12.228598 0 0 1 13.66232,-8.65101 11.157128,12.228598 0 0 1 7.89326,14.97421"
       sodipodi:open="true"
       sodipodi:end="0.26149396"
       sodipodi:start="0.26156726"
       sodipodi:ry="12.228598"
       sodipodi:rx="11.157128"
       sodipodi:cy="261.50153"
       sodipodi:cx="392.64493"
       sodipodi:type="arc"
       id="path4156"
       style="opacity:1;fill:#000000;fill-opacity:1;fill-rule:evenodd;stroke:#42485f;stroke-width:7.17000008;stroke-miterlimit:4;stroke-dasharray:none;stroke-opacity:1" />
    <path
       style="fill:none;fill-rule:evenodd;stroke:#ae9963;stroke-width:5;stroke-linecap:butt;stroke-linejoin:miter;stroke-miterlimit:4;stroke-dasharray:none;stroke-opacity:1"
       d="m 354.56354,289.69703 c 0,0 -48.61619,80.3877 -20.20305,62.62946 0,0 8.97805,-1.56501 12.12184,-2.02031 6.22545,-0.90161 14.14213,2.02031 14.14213,2.02031"
       id="path4166"
       inkscape:connector-curvature="0"
       sodipodi:nodetypes="cssc" />
    <path
       id="path4168"
       style="fill:#c56c62;fill-opacity:1;fill-rule:evenodd;stroke:#bb9484;stroke-width:5;stroke-linecap:butt;stroke-linejoin:miter;stroke-miterlimit:4;stroke-dasharray:none;stroke-opacity:1"
       d="m 304.05592,407.88488 c 0,0 19.07856,-8.57655 29.29442,-10.10152 9.33072,-1.39284 19.05371,-0.93897 28.28427,1.01015 8.87078,1.87315 25.25381,10.10152 25.25381,10.10152 0,0 -23.00648,10.77489 -35.35533,11.11168 -16.32733,0.44529 -45.70941,-12.37437 -45.70941,-12.37437" />
    <path
       style="fill:none;fill-rule:evenodd;stroke:#93867d;stroke-width:2;stroke-linecap:butt;stroke-linejoin:miter;stroke-opacity:1;stroke-miterlimit:4;stroke-dasharray:none"
       d="m 295.9747,235.1488 c -0.33672,1.34687 -0.67344,2.69374 -1.01016,4.04061 -0.33671,0.33671 -0.79719,0.58423 -1.01015,1.01015 -0.15058,0.30117 0,0.67343 0,1.01015 0,0.33672 0,0.67344 0,1.01015 0,0.33672 -0.33672,1.01016 0,1.01016 1.53283,0 0.80892,-1.41661 1.01015,-2.02031 1.16074,-3.48221 1.01016,-0.74828 1.01016,-3.03046 0,-1.01015 -1.01016,-3.03045 0,-3.03045 2.20708,0 2.0203,2.7346 2.0203,4.04061 0,0.67343 0.30117,1.41796 0,2.0203 -0.15058,0.30117 -0.77206,-0.23809 -1.01015,0 -0.2381,0.2381 0,0.67344 0,1.01015 0,0.33672 -0.2381,0.77206 0,1.01016 0.23809,0.23809 0.77206,0.23809 1.01015,0 0.2381,-0.2381 -0.23809,-0.77206 0,-1.01016 0.2381,-0.23809 0.77206,0.2381 1.01015,0 0.47619,-0.47619 -0.30117,-1.41796 0,-2.0203 0.21296,-0.42592 0.7972,-0.58424 1.01016,-1.01015 0.30117,-0.60234 -0.47619,-1.54412 0,-2.02031 0.23809,-0.23809 0.77205,0.2381 1.01015,0 0.23809,-0.23809 -0.33672,-1.01015 0,-1.01015 0.33672,0 0,0.67343 0,1.01015 0,1.34687 0,2.69374 0,4.04061 0,0.33672 -0.2381,0.77206 0,1.01015 0.23809,0.2381 0.77206,0.2381 1.01015,0 0.47619,-0.47619 -0.21296,-1.38143 0,-2.0203 0.2381,-0.71429 0.77206,-1.30602 1.01015,-2.02031 0.21296,-0.63887 -0.30117,-1.41796 0,-2.0203 0.21296,-0.42592 0.7972,-0.58424 1.01016,-1.01015 0.15058,-0.30117 -0.2381,-0.77206 0,-1.01016 0.23809,-0.23809 0.77205,-0.23809 1.01015,0 0.0981,0.0981 0,4.66583 0,5.05077 0,0.33671 0,0.67343 0,1.01015 0,0.33672 0.33672,1.01015 0,1.01015 -0.33672,0 -0.2381,-0.77206 0,-1.01015 0.23809,-0.2381 0.77206,0.23809 1.01015,0 0.47619,-0.47619 -0.21296,-1.38143 0,-2.02031 0.2381,-0.71428 0.77206,-1.30602 1.01015,-2.0203 0.10648,-0.31944 -0.15058,-0.70899 0,-1.01015 0.21296,-0.42592 0.7972,-0.58424 1.01016,-1.01016 0.15058,-0.30117 0,-1.34687 0,-1.01015 0,0.24004 0.1132,3.8142 0,4.04061 -0.21296,0.42592 -0.7972,0.58424 -1.01016,1.01015 -0.30117,0.60234 0.67344,2.02031 0,2.02031 -0.33671,0 -0.15058,-0.70898 0,-1.01015 0.21296,-0.42592 0.7972,-0.58424 1.01016,-1.01016 0.15058,-0.30117 -0.15059,-0.70898 0,-1.01015 0.21296,-0.42592 0.67343,-0.67343 1.01015,-1.01015 0.33672,-0.33672 0.53396,-1.01015 1.01015,-1.01015 2.4336,0 -0.4133,5.05076 2.02031,5.05076 0.67343,0 -0.30117,-1.41797 0,-2.02031 0.21296,-0.42591 0.79719,-0.58423 1.01015,-1.01015 0.15058,-0.30117 -0.2381,-0.77206 0,-1.01015 0.23809,-0.2381 0.77206,0.23809 1.01015,0 0.2381,-0.2381 0,-1.34687 0,-1.01015 0,1.01015 0,2.0203 0,3.03045 0,0.33672 -0.23809,0.77206 0,1.01016 0.2381,0.23809 0.77206,0.23809 1.01015,0 0.2381,-0.2381 -0.15058,-0.70899 0,-1.01016 0.21296,-0.42591 0.7972,-0.58423 1.01016,-1.01015 0.15058,-0.30117 -0.2381,-0.77206 0,-1.01015 0.23809,-0.2381 0.77205,0.23809 1.01015,0 0.23809,-0.2381 -0.15059,-0.70899 0,-1.01015 0.21296,-0.42592 0.67343,-0.67344 1.01015,-1.01016 0.33672,-0.33671 0.53396,-1.01015 1.01015,-1.01015 0.33672,0 -0.15058,0.70898 0,1.01015 0.1315,0.263 1.79982,1.23065 1.01016,2.02031 -0.2381,0.23809 -0.77206,-0.2381 -1.01016,0 -0.23809,0.23809 0,0.67343 0,1.01015 0,0.33672 -0.33671,1.01015 0,1.01015 2.10201,0 0.40646,-1.4166 1.01016,-2.0203 0.23809,-0.2381 0.77205,0.23809 1.01015,0 0.23809,-0.2381 -0.2381,-0.77206 0,-1.01015 2.41906,-2.41906 -0.39876,4.43936 2.0203,2.0203 0.47619,-0.47619 -0.47619,-1.54411 0,-2.0203 0.2381,-0.2381 0.77206,0.23809 1.01016,0 0.47619,-0.47619 -0.47619,-1.54412 0,-2.02031 0.23809,-0.23809 0.77205,0.2381 1.01015,0 0.23809,-0.23809 -0.2381,-0.77206 0,-1.01015 0.23809,-0.2381 0.77206,-0.2381 1.01015,0 0.0458,0.0458 0,4.57448 0,5.05076 0,0.67344 0,1.34687 0,2.02031 0,0.33671 0.33672,1.01015 0,1.01015 -0.33672,0 0,-0.67344 0,-1.01015 0,-0.33672 -0.15058,-0.70899 0,-1.01016 0.21296,-0.42591 0.7972,-0.58423 1.01015,-1.01015 0.15059,-0.30117 -0.23809,-0.77206 0,-1.01015 0.2381,-0.2381 0.77206,0.23809 1.01016,0 0.23809,-0.2381 -0.2381,-0.77206 0,-1.01015 0.23809,-0.2381 0.77205,0.23809 1.01015,0 0.2381,-0.2381 -0.33672,-1.01016 0,-1.01016 2.01835,0 0.40829,2.42859 1.01015,3.03046 0.2381,0.2381 0.77206,0.2381 1.01015,0 0.2381,-0.23809 -0.15058,-0.70898 0,-1.01015 0.1315,-0.26299 1.32363,-1.70683 2.02031,-1.01015 0.24185,0.24185 -0.22963,4.04061 0,4.04061 0.47619,0 0.67343,-0.67344 1.01015,-1.01016 0.33672,-0.33671 0.7972,-0.58423 1.01016,-1.01015 0.15058,-0.30117 -0.33672,-1.01015 0,-1.01015 0.33671,0 0,0.67343 0,1.01015 0,1.01015 0,2.02031 0,3.03046 0,0.33672 -0.33672,1.01015 0,1.01015 2.102,0 0.40645,-1.41661 1.01015,-2.0203 0.23809,-0.2381 0.77205,0.23809 1.01015,0 0.2381,-0.2381 0,-0.67344 0,-1.01016 0.33672,0 0.77206,0.2381 1.01015,0 0.2381,-0.23809 -0.23809,-0.77205 0,-1.01015 0.2381,-0.23809 0.77206,-0.23809 1.01016,0 0.23809,0.2381 0,0.67344 0,1.01015 0,0.45493 0.15371,2.72304 0,3.03046 -0.21296,0.42592 -0.7972,0.58424 -1.01016,1.01015 -0.15058,0.30117 -0.23809,0.77206 0,1.01016 0.2381,0.23809 0.77206,0.23809 1.01016,0 0.47619,-0.47619 -0.4762,-1.54412 0,-2.02031 0.23809,-0.23809 0.77205,0.2381 1.01015,0 0.47619,-0.47619 -0.30117,-1.41797 0,-2.0203 0.21296,-0.42592 0.67343,-0.67344 1.01015,-1.01016 0.33672,-0.33671 0.79719,-0.58423 1.01015,-1.01015 0.15059,-0.30117 -0.33671,-1.01015 0,-1.01015 0.33672,0 0,0.67343 0,1.01015 0,0.37097 -0.0407,3.99996 0,4.04061 0.2381,0.2381 0.77206,0.2381 1.01016,0 0.50507,-0.50508 -0.50508,-2.52538 0,-3.03046 0.23809,-0.23809 0.77205,0.2381 1.01015,0 0.23809,-0.23809 0,-1.34687 0,-1.01015 0,0.67344 0.21296,1.38143 0,2.02031 -0.15059,0.45175 -0.7972,0.58423 -1.01015,1.01015 -0.20026,0.40052 0.20651,2.82394 0,3.03046 -0.2381,0.23809 -1.01016,0.33671 -1.01016,0 0,-0.33672 0.77206,0.23809 1.01016,0 0.21596,-0.21597 -0.18565,-3.48369 0,-4.04061 0.23809,-0.71429 0.77205,-1.30602 1.01015,-2.02031 0.16713,-0.5014 0.086,-2.94443 0,-3.03046 -0.2381,-0.23809 -0.77206,-0.23809 -1.01015,0 -0.2381,0.2381 0.23809,0.77206 0,1.01016 -0.2381,0.23809 -0.77206,-0.2381 -1.01016,0 -0.53239,0.53239 -0.47775,1.4879 -1.01015,2.0203 -0.85846,0.85847 -2.08244,1.26189 -3.03046,2.02031 -0.74368,0.59494 -1.34687,1.34687 -2.0203,2.0203 -0.33672,0.33672 -0.60182,1.25515 -1.01015,1.01015 -1.63332,-0.97999 -2.85072,-2.55324 -4.04062,-4.04061 -0.2988,-0.3735 0.27884,-3.76177 0,-4.04061 -0.23809,-0.23809 -0.77205,0.2381 -1.01015,0 -0.23809,-0.23809 0.33672,-1.01015 0,-1.01015 -1.67512,0 -0.7083,1.41661 -1.01015,2.02031 -0.21296,0.42591 -0.79719,0.58423 -1.01015,1.01015 -0.69668,1.39336 1.22335,0.90355 -1.01016,2.0203 -0.30116,0.15059 -0.77205,-0.23809 -1.01015,0 -0.47619,0.47619 0.47619,1.54412 0,2.02031 -0.23809,0.23809 -0.77206,0.23809 -1.01015,0 -0.2381,-0.2381 0.23809,-0.77206 0,-1.01015 -0.2381,-0.2381 -0.77206,0.23809 -1.01015,0 -0.2381,-0.2381 0,-0.67344 0,-1.01016 0,-0.47628 0.0458,-5.00498 0,-5.05076 -0.2381,-0.23809 -0.77206,-0.23809 -1.01016,0 -0.47619,0.47619 0.30117,1.41797 0,2.02031 -0.42591,0.85183 -1.59438,1.16847 -2.0203,2.0203 -0.30117,0.60234 0.47619,1.54412 0,2.02031 -0.2381,0.23809 -0.77206,-0.2381 -1.01015,0 -0.2381,0.23809 0.33671,1.01015 0,1.01015 -0.33672,0 0,-0.67344 0,-1.01015 0,-0.33672 -0.15059,-0.70899 0,-1.01016 0.21296,-0.42591 0.79719,-0.58423 1.01015,-1.01015 0.30117,-0.60234 -0.30117,-1.41797 0,-2.0203 0.21296,-0.42592 0.79719,-0.58424 1.01015,-1.01016 0.15059,-0.30117 -0.33672,-1.01015 0,-1.01015 0.67344,0 -0.47619,1.54412 0,2.02031 0.2381,0.23809 0.77206,-0.2381 1.01015,0 0.2381,0.23809 -0.23809,0.77205 0,1.01015 0.2381,0.23809 0.77206,0.23809 1.01016,0 0.23809,-0.2381 -0.2381,-0.77206 0,-1.01015 0.23809,-0.2381 0.77205,0.23809 1.01015,0 0.23809,-0.2381 -0.15059,-0.70899 0,-1.01016 2.10201,-4.20401 -0.0697,1.07989 2.0203,-1.01015 0.2381,-0.23809 -0.23809,-0.77206 0,-1.01015 0.10102,-0.10102 2.92945,-0.10102 3.03046,0 0.0325,0.0325 0,2.78547 0,3.03046 0,2.36898 -0.23809,-0.47619 1.01015,2.0203 0.15059,0.30117 -0.23809,0.77206 0,1.01015 0.2381,0.2381 0.77206,0.2381 1.01016,0 0.23809,-0.23809 -0.2381,-0.77205 0,-1.01015 0.23809,-0.23809 0.77205,0.2381 1.01015,0 0.2381,-0.23809 -0.2381,-0.77206 0,-1.01015 0.2381,-0.2381 0.70898,0.15058 1.01015,0 0.42592,-0.21296 0.58424,-0.7972 1.01016,-1.01015 0.20721,-0.10361 2.888,-0.14246 3.03045,0 0.2381,0.23809 -0.15058,0.70898 0,1.01015 0.21296,0.42592 0.7972,0.58423 1.01016,1.01015 0.15058,0.30117 -0.15059,0.70898 0,1.01015 0.21295,0.42592 0.79719,0.58424 1.01015,1.01016 0.15058,0.30117 -0.2381,0.77205 0,1.01015 0.23809,0.23809 0.77206,-0.2381 1.01015,0 0.2381,0.23809 0.33672,1.01015 0,1.01015 -0.33672,0 0,-0.67343 0,-1.01015"
       id="path4172"
       inkscape:connector-curvature="0" />
    <path
       inkscape:connector-curvature="0"
       id="path4178"
       d="m 366.68538,233.12849 c -0.33672,1.34687 -0.67344,2.69374 -1.01016,4.04061 -0.33671,0.33671 -0.79719,0.58423 -1.01015,1.01015 -0.15058,0.30117 0,0.67343 0,1.01015 0,0.33672 0,0.67344 0,1.01015 0,0.33672 -0.33672,1.01016 0,1.01016 1.53283,0 0.80892,-1.41661 1.01015,-2.02031 1.16074,-3.48221 1.01016,-0.74828 1.01016,-3.03046 0,-1.01015 -1.01016,-3.03045 0,-3.03045 2.20708,0 2.0203,2.7346 2.0203,4.04061 0,0.67343 0.30117,1.41796 0,2.0203 -0.15058,0.30117 -0.77206,-0.23809 -1.01015,0 -0.2381,0.2381 0,0.67344 0,1.01015 0,0.33672 -0.2381,0.77206 0,1.01016 0.23809,0.23809 0.77206,0.23809 1.01015,0 0.2381,-0.2381 -0.23809,-0.77206 0,-1.01016 0.2381,-0.23809 0.77206,0.2381 1.01015,0 0.47619,-0.47619 -0.30117,-1.41796 0,-2.0203 0.21296,-0.42592 0.7972,-0.58424 1.01016,-1.01015 0.30117,-0.60234 -0.47619,-1.54412 0,-2.02031 0.23809,-0.23809 0.77205,0.2381 1.01015,0 0.23809,-0.23809 -0.33672,-1.01015 0,-1.01015 0.33672,0 0,0.67343 0,1.01015 0,1.34687 0,2.69374 0,4.04061 0,0.33672 -0.2381,0.77206 0,1.01015 0.23809,0.2381 0.77206,0.2381 1.01015,0 0.47619,-0.47619 -0.21296,-1.38143 0,-2.0203 0.2381,-0.71429 0.77206,-1.30602 1.01015,-2.02031 0.21296,-0.63887 -0.30117,-1.41796 0,-2.0203 0.21296,-0.42592 0.7972,-0.58424 1.01016,-1.01015 0.15058,-0.30117 -0.2381,-0.77206 0,-1.01016 0.23809,-0.23809 0.77205,-0.23809 1.01015,0 0.0981,0.0981 0,4.66583 0,5.05077 0,0.33671 0,0.67343 0,1.01015 0,0.33672 0.33672,1.01015 0,1.01015 -0.33672,0 -0.2381,-0.77206 0,-1.01015 0.23809,-0.2381 0.77206,0.23809 1.01015,0 0.47619,-0.47619 -0.21296,-1.38143 0,-2.02031 0.2381,-0.71428 0.77206,-1.30602 1.01015,-2.0203 0.10648,-0.31944 -0.15058,-0.70899 0,-1.01015 0.21296,-0.42592 0.7972,-0.58424 1.01016,-1.01016 0.15058,-0.30117 0,-1.34687 0,-1.01015 0,0.24004 0.1132,3.8142 0,4.04061 -0.21296,0.42592 -0.7972,0.58424 -1.01016,1.01015 -0.30117,0.60234 0.67344,2.02031 0,2.02031 -0.33671,0 -0.15058,-0.70898 0,-1.01015 0.21296,-0.42592 0.7972,-0.58424 1.01016,-1.01016 0.15058,-0.30117 -0.15059,-0.70898 0,-1.01015 0.21296,-0.42592 0.67343,-0.67343 1.01015,-1.01015 0.33672,-0.33672 0.53396,-1.01015 1.01015,-1.01015 2.4336,0 -0.4133,5.05076 2.02031,5.05076 0.67343,0 -0.30117,-1.41797 0,-2.02031 0.21296,-0.42591 0.79719,-0.58423 1.01015,-1.01015 0.15058,-0.30117 -0.2381,-0.77206 0,-1.01015 0.23809,-0.2381 0.77206,0.23809 1.01015,0 0.2381,-0.2381 0,-1.34687 0,-1.01015 0,1.01015 0,2.0203 0,3.03045 0,0.33672 -0.23809,0.77206 0,1.01016 0.2381,0.23809 0.77206,0.23809 1.01015,0 0.2381,-0.2381 -0.15058,-0.70899 0,-1.01016 0.21296,-0.42591 0.7972,-0.58423 1.01016,-1.01015 0.15058,-0.30117 -0.2381,-0.77206 0,-1.01015 0.23809,-0.2381 0.77205,0.23809 1.01015,0 0.23809,-0.2381 -0.15059,-0.70899 0,-1.01015 0.21296,-0.42592 0.67343,-0.67344 1.01015,-1.01016 0.33672,-0.33671 0.53396,-1.01015 1.01015,-1.01015 0.33672,0 -0.15058,0.70898 0,1.01015 0.1315,0.263 1.79982,1.23065 1.01016,2.02031 -0.2381,0.23809 -0.77206,-0.2381 -1.01016,0 -0.23809,0.23809 0,0.67343 0,1.01015 0,0.33672 -0.33671,1.01015 0,1.01015 2.10201,0 0.40646,-1.4166 1.01016,-2.0203 0.23809,-0.2381 0.77205,0.23809 1.01015,0 0.23809,-0.2381 -0.2381,-0.77206 0,-1.01015 2.41906,-2.41906 -0.39876,4.43936 2.0203,2.0203 0.47619,-0.47619 -0.47619,-1.54411 0,-2.0203 0.2381,-0.2381 0.77206,0.23809 1.01016,0 0.47619,-0.47619 -0.47619,-1.54412 0,-2.02031 0.23809,-0.23809 0.77205,0.2381 1.01015,0 0.23809,-0.23809 -0.2381,-0.77206 0,-1.01015 0.23809,-0.2381 0.77206,-0.2381 1.01015,0 0.0458,0.0458 0,4.57448 0,5.05076 0,0.67344 0,1.34687 0,2.02031 0,0.33671 0.33672,1.01015 0,1.01015 -0.33672,0 0,-0.67344 0,-1.01015 0,-0.33672 -0.15058,-0.70899 0,-1.01016 0.21296,-0.42591 0.7972,-0.58423 1.01015,-1.01015 0.15059,-0.30117 -0.23809,-0.77206 0,-1.01015 0.2381,-0.2381 0.77206,0.23809 1.01016,0 0.23809,-0.2381 -0.2381,-0.77206 0,-1.01015 0.23809,-0.2381 0.77205,0.23809 1.01015,0 0.2381,-0.2381 -0.33672,-1.01016 0,-1.01016 2.01835,0 0.40829,2.42859 1.01015,3.03046 0.2381,0.2381 0.77206,0.2381 1.01015,0 0.2381,-0.23809 -0.15058,-0.70898 0,-1.01015 0.1315,-0.26299 1.32363,-1.70683 2.02031,-1.01015 0.24185,0.24185 -0.22963,4.04061 0,4.04061 0.47619,0 0.67343,-0.67344 1.01015,-1.01016 0.33672,-0.33671 0.7972,-0.58423 1.01016,-1.01015 0.15058,-0.30117 -0.33672,-1.01015 0,-1.01015 0.33671,0 0,0.67343 0,1.01015 0,1.01015 0,2.02031 0,3.03046 0,0.33672 -0.33672,1.01015 0,1.01015 2.102,0 0.40645,-1.41661 1.01015,-2.0203 0.23809,-0.2381 0.77205,0.23809 1.01015,0 0.2381,-0.2381 0,-0.67344 0,-1.01016 0.33672,0 0.77206,0.2381 1.01015,0 0.2381,-0.23809 -0.23809,-0.77205 0,-1.01015 0.2381,-0.23809 0.77206,-0.23809 1.01016,0 0.23809,0.2381 0,0.67344 0,1.01015 0,0.45493 0.15371,2.72304 0,3.03046 -0.21296,0.42592 -0.7972,0.58424 -1.01016,1.01015 -0.15058,0.30117 -0.23809,0.77206 0,1.01016 0.2381,0.23809 0.77206,0.23809 1.01016,0 0.47619,-0.47619 -0.4762,-1.54412 0,-2.02031 0.23809,-0.23809 0.77205,0.2381 1.01015,0 0.47619,-0.47619 -0.30117,-1.41797 0,-2.0203 0.21296,-0.42592 0.67343,-0.67344 1.01015,-1.01016 0.33672,-0.33671 0.79719,-0.58423 1.01015,-1.01015 0.15059,-0.30117 -0.33671,-1.01015 0,-1.01015 0.33672,0 0,0.67343 0,1.01015 0,0.37097 -0.0407,3.99996 0,4.04061 0.2381,0.2381 0.77206,0.2381 1.01016,0 0.50507,-0.50508 -0.50508,-2.52538 0,-3.03046 0.23809,-0.23809 0.77205,0.2381 1.01015,0 0.23809,-0.23809 0,-1.34687 0,-1.01015 0,0.67344 0.21296,1.38143 0,2.02031 -0.15059,0.45175 -0.7972,0.58423 -1.01015,1.01015 -0.20026,0.40052 0.20651,2.82394 0,3.03046 -0.2381,0.23809 -1.01016,0.33671 -1.01016,0 0,-0.33672 0.77206,0.23809 1.01016,0 0.21596,-0.21597 -0.18565,-3.48369 0,-4.04061 0.23809,-0.71429 0.77205,-1.30602 1.01015,-2.02031 0.16713,-0.5014 0.086,-2.94443 0,-3.03046 -0.2381,-0.23809 -0.77206,-0.23809 -1.01015,0 -0.2381,0.2381 0.23809,0.77206 0,1.01016 -0.2381,0.23809 -0.77206,-0.2381 -1.01016,0 -0.53239,0.53239 -0.47775,1.4879 -1.01015,2.0203 -0.85846,0.85847 -2.08244,1.26189 -3.03046,2.02031 -0.74368,0.59494 -1.34687,1.34687 -2.0203,2.0203 -0.33672,0.33672 -0.60182,1.25515 -1.01015,1.01015 -1.63332,-0.97999 -2.85072,-2.55324 -4.04062,-4.04061 -0.2988,-0.3735 0.27884,-3.76177 0,-4.04061 -0.23809,-0.23809 -0.77205,0.2381 -1.01015,0 -0.23809,-0.23809 0.33672,-1.01015 0,-1.01015 -1.67512,0 -0.7083,1.41661 -1.01015,2.02031 -0.21296,0.42591 -0.79719,0.58423 -1.01015,1.01015 -0.69668,1.39336 1.22335,0.90355 -1.01016,2.0203 -0.30116,0.15059 -0.77205,-0.23809 -1.01015,0 -0.47619,0.47619 0.47619,1.54412 0,2.02031 -0.23809,0.23809 -0.77206,0.23809 -1.01015,0 -0.2381,-0.2381 0.23809,-0.77206 0,-1.01015 -0.2381,-0.2381 -0.77206,0.23809 -1.01015,0 -0.2381,-0.2381 0,-0.67344 0,-1.01016 0,-0.47628 0.0458,-5.00498 0,-5.05076 -0.2381,-0.23809 -0.77206,-0.23809 -1.01016,0 -0.47619,0.47619 0.30117,1.41797 0,2.02031 -0.42591,0.85183 -1.59438,1.16847 -2.0203,2.0203 -0.30117,0.60234 0.47619,1.54412 0,2.02031 -0.2381,0.23809 -0.77206,-0.2381 -1.01015,0 -0.2381,0.23809 0.33671,1.01015 0,1.01015 -0.33672,0 0,-0.67344 0,-1.01015 0,-0.33672 -0.15059,-0.70899 0,-1.01016 0.21296,-0.42591 0.79719,-0.58423 1.01015,-1.01015 0.30117,-0.60234 -0.30117,-1.41797 0,-2.0203 0.21296,-0.42592 0.79719,-0.58424 1.01015,-1.01016 0.15059,-0.30117 -0.33672,-1.01015 0,-1.01015 0.67344,0 -0.47619,1.54412 0,2.02031 0.2381,0.23809 0.77206,-0.2381 1.01015,0 0.2381,0.23809 -0.23809,0.77205 0,1.01015 0.2381,0.23809 0.77206,0.23809 1.01016,0 0.23809,-0.2381 -0.2381,-0.77206 0,-1.01015 0.23809,-0.2381 0.77205,0.23809 1.01015,0 0.23809,-0.2381 -0.15059,-0.70899 0,-1.01016 2.10201,-4.20401 -0.0697,1.07989 2.0203,-1.01015 0.2381,-0.23809 -0.23809,-0.77206 0,-1.01015 0.10102,-0.10102 2.92945,-0.10102 3.03046,0 0.0325,0.0325 0,2.78547 0,3.03046 0,2.36898 -0.23809,-0.47619 1.01015,2.0203 0.15059,0.30117 -0.23809,0.77206 0,1.01015 0.2381,0.2381 0.77206,0.2381 1.01016,0 0.23809,-0.23809 -0.2381,-0.77205 0,-1.01015 0.23809,-0.23809 0.77205,0.2381 1.01015,0 0.2381,-0.23809 -0.2381,-0.77206 0,-1.01015 0.2381,-0.2381 0.70898,0.15058 1.01015,0 0.42592,-0.21296 0.58424,-0.7972 1.01016,-1.01015 0.20721,-0.10361 2.888,-0.14246 3.03045,0 0.2381,0.23809 -0.15058,0.70898 0,1.01015 0.21296,0.42592 0.7972,0.58423 1.01016,1.01015 0.15058,0.30117 -0.15059,0.70898 0,1.01015 0.21295,0.42592 0.79719,0.58424 1.01015,1.01016 0.15058,0.30117 -0.2381,0.77205 0,1.01015 0.23809,0.23809 0.77206,-0.2381 1.01015,0 0.2381,0.23809 0.33672,1.01015 0,1.01015 -0.33672,0 0,-0.67343 0,-1.01015"
       style="fill:none;fill-rule:evenodd;stroke:#93867d;stroke-width:2;stroke-linecap:butt;stroke-linejoin:miter;stroke-miterlimit:4;stroke-dasharray:none;stroke-opacity:1" />
    <path
       style="fill:none;fill-rule:evenodd;stroke:#bb9484;stroke-width:3.82073593;stroke-linecap:butt;stroke-linejoin:miter;stroke-miterlimit:4;stroke-dasharray:none;stroke-opacity:1"
       d="m 310.8161,407.42108 c 35.29461,5.06568 73.40781,0.18252 73.40781,0.18252"
       id="path4181"
       inkscape:connector-curvature="0"
       inkscape:transform-center-x="0.47878255"
       inkscape:transform-center-y="-5.9856233e-005"
       sodipodi:nodetypes="cc" />
    <path
       style="opacity:1;fill:#a3a3a3;fill-opacity:1;fill-rule:evenodd;stroke:#a0a0a0;stroke-width:4.1789999;stroke-miterlimit:4;stroke-dasharray:none;stroke-opacity:1"
       id="path4194"
       d="m 252.08623,148.81607 c -27.72367,15.99598 -8.67994,5.00262 -1.48311,0.87046 0.32004,-0.18376 -0.63689,0.37311 -0.9519,0.56537 -0.95495,0.58283 -1.87838,1.18216 -2.77769,1.84707 -1.90731,1.50119 -3.03211,3.64922 -3.95264,5.84513 -0.73408,1.92063 -0.87886,3.96958 -0.9623,6.00259 0.0347,2.02209 0.64412,3.94813 1.16939,5.87969 0.85529,2.57433 1.26946,5.23417 1.54274,7.92293 0.2296,2.85422 0.32745,5.69365 0.0222,8.54177 -0.22895,2.87772 -1.21725,5.59433 -2.3413,8.22681 -1.08018,2.91108 -2.58247,5.5774 -4.33992,8.12347 -1.5507,2.321 -3.38286,4.43089 -5.28262,6.4691 -1.66883,1.70563 -3.6483,3.03727 -5.53998,4.47244 -1.86414,1.42288 -3.81795,2.72355 -5.68931,4.13664 -1.96797,1.32725 -3.75171,2.88944 -5.49445,4.49382 -1.93302,1.89893 -3.88801,3.75939 -5.97123,5.49272 -1.75271,1.62536 -3.38313,3.36927 -5.11675,5.01702 -1.52764,1.46371 -2.90259,3.00738 -4.09879,4.74961 -1.33173,2.2382 -2.56622,4.52446 -3.43645,6.98277 -0.73526,2.25584 -0.85299,4.62439 -0.91541,6.97599 -0.17642,2.41659 0.55658,4.72208 1.07593,7.04694 0.63054,2.92649 1.79679,5.69507 3.02116,8.41367 1.87666,3.15973 4.36491,5.91653 6.67688,8.76236 2.49104,2.95725 4.5777,6.13493 5.67602,9.85718 0.74629,2.65558 0.73112,5.27713 -0.11542,7.88774 -1.19692,2.55471 -2.99842,4.79876 -4.82753,6.93012 -2.50521,2.32125 -4.95077,4.69547 -7.34115,7.13711 -2.08553,2.37504 -4.51801,4.39056 -6.82538,6.53671 -1.78938,1.69971 -3.76831,3.17719 -5.68987,4.71948 -2.02632,1.37545 -3.80394,3.00333 -5.37899,4.87214 -1.61268,2.16568 -2.8663,4.58445 -3.98439,7.03592 -1.2222,2.77416 -2.24551,5.6244 -3.1404,8.51898 -0.94236,3.20636 -1.32288,6.53553 -1.3043,9.86806 0.109,3.92767 0.66771,7.81355 1.60336,11.62471 1.23432,4.90625 3.70087,8.05912 7.20419,11.55906 2.72854,2.69701 6.02895,4.66959 9.25042,6.70415 0,0 -11.82753,7.61748 -11.82753,7.61748 l 0,0 c -3.32509,-2.08245 -6.66615,-4.18515 -9.52498,-6.9004 -3.56146,-3.52249 -6.47941,-7.17285 -7.7651,-12.12585 -1.02037,-3.88389 -1.63547,-7.84953 -1.8353,-11.86367 -0.16843,-3.45722 0.15821,-6.90854 1.04579,-10.26246 0.86696,-2.91219 1.72948,-5.83153 2.98952,-8.60404 0.97174,-2.6148 2.37975,-5.01569 3.81558,-7.39865 1.44527,-1.98457 3.06685,-3.81212 5.12248,-5.18752 2.05199,-1.42955 3.95058,-3.06796 5.90913,-4.62652 2.28972,-2.19418 4.82354,-4.12476 6.90868,-6.52775 2.42023,-2.35769 4.65206,-4.89981 7.26525,-7.05035 1.93179,-1.89629 3.48374,-4.13596 4.97021,-6.38928 1.08568,-2.27488 1.23854,-4.6401 0.65459,-7.0993 -0.92196,-3.57319 -2.76298,-6.63945 -5.10206,-9.48703 -2.45592,-2.92352 -5.31644,-5.5629 -7.1628,-8.9411 -1.21197,-2.82155 -2.45013,-5.64038 -3.20408,-8.6293 -0.56868,-2.42061 -1.43506,-4.82653 -1.29405,-7.34847 0.0604,-2.47378 0.086,-4.98053 0.75801,-7.38102 0.79583,-2.56278 1.99524,-4.91939 3.24564,-7.28609 1.09044,-1.90088 2.32852,-3.57501 3.96824,-5.03783 1.64118,-1.78663 3.59122,-3.27337 5.12057,-5.17878 2.0773,-1.7281 4.17138,-3.41566 6.00743,-5.41115 1.69726,-1.63082 3.39753,-3.27755 5.32427,-4.64002 1.95992,-1.31963 3.79033,-2.8235 5.78541,-4.101 1.82805,-1.48752 3.82423,-2.73484 5.57059,-4.32066 2.09106,-1.82603 3.87007,-4.03906 5.52733,-6.25521 1.70764,-2.49855 3.5053,-4.9446 4.42115,-7.87692 1.18231,-2.46377 2.18753,-5.07163 2.4906,-7.80378 0.37095,-2.75176 0.39668,-5.50467 0.14331,-8.27442 -0.22443,-2.60269 -0.60686,-5.18778 -1.55072,-7.64097 -0.54102,-2.07226 -1.22055,-4.10572 -1.37883,-6.25968 0.055,-2.17461 0.15022,-4.36849 0.79194,-6.46446 0.82417,-2.36308 1.95734,-4.67265 3.6323,-6.55235 7.36663,-6.47023 32.50091,-18.19528 4.93308,-3.31773 0,0 13.96331,-5.46345 13.96331,-5.46345 z"
       inkscape:connector-curvature="0" />
    <path
       style="opacity:1;fill:#a3a3a3;fill-opacity:1;fill-rule:evenodd;stroke:#a0a0a0;stroke-width:4.1789999;stroke-miterlimit:4;stroke-dasharray:none;stroke-opacity:1"
       id="path4222"
       d="m 493.53113,445.71178 c 1.72708,-1.95744 3.57246,-3.81732 5.45219,-5.63014 2.10867,-1.899 4.03101,-3.98356 6.03302,-5.98991 1.78749,-1.81552 3.40895,-3.77968 4.83883,-5.88674 1.08378,-1.76565 2.18109,-3.52906 3.12188,-5.37611 0.89542,-1.50043 1.83137,-2.97784 2.77247,-4.45145 1.07334,-1.60432 2.24371,-3.13884 3.34563,-4.72271 1.03919,-1.75796 2.14894,-3.46089 3.27557,-5.16234 1.12009,-1.60496 1.77179,-3.36678 2.12263,-5.2762 0.0318,-1.8516 -0.0852,-3.82152 -0.8199,-5.5404 -0.8898,-1.74834 -1.41167,-3.63825 -2.201,-5.4334 -0.93693,-1.89311 -1.36391,-3.93704 -1.60636,-6.01782 -0.20748,-2.13236 -0.16496,-4.27563 -0.15366,-6.41445 0.005,-2.2374 -0.002,-4.47481 -0.006,-6.7122 0.15431,-2.12306 0.51404,-4.23579 1.0331,-6.29962 0.64769,-2.26489 0.83835,-4.61363 0.95507,-6.95541 0.12557,-2.59163 0.0847,-5.18756 0.0634,-7.78109 -0.0654,-2.07803 0.0683,-4.16473 -0.11223,-6.23704 -0.42488,-2.0904 -0.56822,-4.21744 -0.85707,-6.32512 -0.48892,-2.80301 -0.73314,-5.63786 -1.11238,-8.45515 -0.38903,-3.0853 -0.73814,-6.17629 -0.85623,-9.28487 0.0531,-2.61542 -0.32608,-5.19301 -0.66701,-7.7767 -0.20585,-2.20236 -0.68757,-4.38855 -1.21962,-6.53531 -0.43643,-2.37615 -1.60137,-4.50885 -2.37152,-6.78037 -0.81415,-2.66627 -1.62048,-5.33465 -2.45829,-7.99368 -0.85291,-2.42431 -1.79625,-4.81843 -2.5914,-7.26247 -0.54063,-2.44751 -1.30995,-4.80966 -2.19924,-7.14924 -0.85597,-2.75761 -1.60388,-5.54752 -2.15655,-8.38232 -0.42251,-2.75613 -0.40111,-5.54106 -0.80381,-8.29869 -0.35081,-2.52306 -0.69606,-5.04072 -1.10167,-7.55649 -0.39329,-2.69261 -0.42173,-5.41028 -0.89711,-8.08927 -0.44485,-2.13983 -0.60117,-4.32017 -0.97467,-6.47099 -0.27447,-2.56608 -0.74259,-5.09518 -1.16733,-7.63751 -0.33615,-2.38774 -0.98304,-4.71129 -1.35771,-7.09324 -0.23784,-2.07834 -0.76205,-4.10452 -1.05713,-6.17517 -0.18255,-2.17039 -0.46456,-4.33168 -0.93806,-6.45887 -0.71069,-2.39568 -0.89584,-4.89355 -1.31031,-7.34472 -0.31879,-2.15996 -0.97974,-4.21753 -1.75574,-6.24861 -0.92082,-2.05854 -1.91617,-4.06974 -2.69191,-6.18925 -0.96818,-2.39035 -1.59888,-4.89745 -2.54864,-7.29135 -1.15139,-3.22136 -2.97617,-6.11604 -4.51134,-9.1521 -1.40119,-2.65111 -2.28632,-5.54002 -3.22665,-8.37776 -0.63634,-2.78965 -1.63787,-5.46723 -2.51685,-8.18279 -0.74069,-2.10216 -1.51557,-4.19522 -2.17978,-6.32318 -0.71958,-1.71309 -1.43775,-3.43062 -2.0284,-5.19313 -0.42538,-2.00823 -1.1558,-3.80115 -2.73907,-5.14714 -1.55859,-1.50695 -3.56477,-2.27532 -5.64296,-2.7438 -2.27669,-0.49056 -4.61882,-0.26364 -6.90135,-0.64247 -2.36883,-0.22731 -4.65653,-0.79584 -6.97854,-1.27743 -2.81126,-0.7347 -5.42654,-2.04277 -8.05834,-3.24669 -2.08811,-1.03141 -3.87756,-2.45961 -5.60167,-3.99716 -1.51136,-1.39653 -3.06518,-2.71383 -4.49785,-4.19577 -1.76448,-1.75878 -3.59452,-3.42535 -5.47537,-5.05899 -2.02918,-1.57053 -4.19293,-2.93334 -6.53845,-3.97415 -2.69037,-1.51666 -5.76602,-1.74043 -8.728,-2.32717 -3.02919,-0.61959 -6.114,-0.83204 -9.19704,-0.94308 -2.70395,-0.0701 -5.40885,-0.0455 -8.11331,-0.0558 -2.49514,0.0763 -4.93781,0.0742 -7.39809,-0.34174 -2.11755,-0.21562 -4.12399,-0.91376 -6.21479,-1.2823 -1.94765,-0.78563 -4.06176,-0.88486 -6.06332,-1.43083 -2.70584,-0.76442 -5.32394,-1.74843 -8.07404,-2.36685 -1.59399,-0.63515 -3.35821,-0.75772 -4.93582,-1.43231 -0.67276,-0.28767 -1.29639,-0.67885 -1.94463,-1.01819 -1.73869,-0.74302 -3.47938,-1.45163 -5.33652,-1.8385 -1.92876,-0.20275 -3.99445,0.1528 -5.88299,0.60823 -5.16974,2.41068 -16.26965,9.11352 5.56843,-3.45196 -2.14742,1.39192 -4.36459,2.67655 -6.49473,4.09462 -6.1272,3.52197 -11.94686,8.23647 -19.07114,9.29714 -2.1287,0.40328 -4.21263,-0.167 -6.31628,-0.45469 -2.03524,-0.31645 -4.01126,-0.88154 -6.06596,-1.13398 -1.93925,-0.066 -4.02585,0.20949 -5.89495,0.77096 -2.527,0.49268 -4.86419,1.58825 -7.21626,2.59071 -0.4446,0.19614 -0.89591,0.37772 -1.3338,0.58843 -1.53728,0.73975 -1.12871,0.61385 -2.60361,1.4696 -0.41679,0.24182 -1.68309,0.93912 -1.26595,0.69791 14.4616,-8.36246 14.77937,-8.5573 10.05613,-5.76408 -6.63011,4.07868 -13.18995,8.37502 -20.36439,11.42665 -2.17613,0.98224 -4.28761,2.10263 -6.46769,3.07449 -4.721,2.55508 -3.66957,1.99653 10.6133,-6.11614 0.35361,-0.20085 -0.69223,0.4271 -1.03357,0.64817 -1.02205,0.66193 -2.03175,1.34546 -3.0339,2.03698 -1.83114,1.32448 -3.57538,2.76147 -5.39835,4.09609 -5.55093,3.63832 3.79074,-2.46133 -14.42757,8.43057 -3.86105,2.30835 15.66573,-8.84782 11.69022,-6.74272 -4.71068,2.4944 -10.23495,6.31306 -15.58156,8.76054 -1.99793,0.87141 -4.12563,1.39021 -6.04509,2.43071 -5.09359,2.35794 -1.59336,0.77244 10.75741,-6.24625 2.21944,-1.26127 -1.92462,1.28321 -2.2497,1.47295 -4.49049,2.6209 -9.01437,5.18416 -13.52156,7.77624 -1.75486,0.48015 -3.40411,1.24799 -5.05863,1.98728 -0.77266,0.18723 -1.44196,0.62419 -2.12758,1.01241 -0.23677,0.13407 -0.9216,0.57839 -0.6854,0.44332 11.57358,-6.61817 15.75136,-9.39621 11.06161,-6.30444 -1.61304,1.02344 -3.12891,2.15605 -4.40963,3.57675 -1.13013,1.5492 -2.3777,2.96909 -3.78411,4.27059 -1.14872,0.90825 -0.56205,0.45179 -1.76067,1.36855 0,0 -13.68664,5.47019 -13.68664,5.47019 l 0,0 c 1.15848,-0.91503 0.5821,-0.47485 1.72767,-1.32247 1.54426,-1.08594 2.76632,-2.47396 3.91457,-3.95413 1.12432,-1.68543 2.56065,-2.90235 4.20178,-4.06206 5.68583,-3.31838 11.09448,-7.21121 17.18816,-9.72931 1.63328,-0.73502 3.37212,-1.22408 4.98516,-2.00963 -3.94854,2.31239 -7.88534,4.64491 -11.8456,6.93715 -0.24803,0.14356 0.48192,-0.31187 0.70659,-0.48978 1.33726,-1.05899 0.0244,-0.24452 1.55848,-1.12636 13.79434,-7.92959 8.84928,-5.55857 14.56097,-8.25942 2.00574,-0.83264 4.09037,-1.47544 6.03925,-2.44802 0.65433,-0.34293 2.60021,-1.40273 1.96233,-1.03008 -3.88609,2.2703 -15.60068,8.98374 -11.68347,6.76756 45.46611,-25.7226 -8.31891,4.35962 2.74679,-1.60328 1.96976,-1.15826 3.65862,-2.71714 5.4941,-4.06564 5.78505,-4.36143 12.28855,-7.7983 18.66244,-11.15379 2.12713,-1.03675 4.27496,-2.02979 6.42814,-3.01115 0.88678,-0.41421 1.55813,-0.71976 2.43724,-1.16441 0.43042,-0.21771 1.69772,-0.91575 1.28196,-0.6712 -20.09152,11.81809 -12.7425,7.58422 -8.49414,4.77871 6.64307,-3.96245 13.21075,-8.16533 20.28366,-11.32792 2.41976,-1.02892 4.89183,-1.93256 7.47436,-2.46476 2.05481,-0.34572 4.1461,-0.71139 6.22392,-0.33224 2.03035,0.33693 4.01337,0.90536 6.06196,1.13131 2.01466,0.29511 4.00391,0.59255 6.01935,0.0783 5.77367,-1.29827 15.48948,-7.627885 -6.47346,4.95015 2.22468,-1.35794 4.41586,-2.77665 6.61016,-4.1888 4.58928,-2.65612 9.17639,-5.31601 13.76785,-7.968368 1.92314,-1.11095 3.84524,-2.303403 6.05779,-2.732463 2.08924,-0.341729 4.22677,-0.692263 6.31002,-0.120476 1.90665,0.529713 3.7651,1.249018 5.53283,2.13953 2.06564,1.081868 4.31584,1.604367 6.54796,2.248827 2.73526,0.7374 5.40986,1.68914 8.18757,2.26642 2.03039,0.39275 4.04291,0.8285 6.03543,1.38658 2.04617,0.44535 4.06395,1.01924 6.15336,1.24465 2.38782,0.3161 4.79404,0.19028 7.19757,0.21388 2.70328,-0.0105 5.40861,0.003 8.10879,0.14435 3.12095,0.18209 6.23193,0.4804 9.29687,1.12354 3.08173,0.55893 6.18774,1.07687 8.97959,2.59436 2.41784,1.17449 4.73558,2.55908 6.80518,4.28548 1.92046,1.65009 3.71078,3.42536 5.58681,5.12233 1.45522,1.42558 2.99886,2.74288 4.50613,4.11177 1.56407,1.48193 3.30467,2.74178 5.24372,3.69902 2.53586,1.24192 5.13634,2.43798 7.9391,2.92344 2.26935,0.51903 4.55015,0.94051 6.86892,1.17869 2.34606,0.15878 4.71574,0.20995 7.00383,0.81747 2.25193,0.65909 4.42918,1.6176 6.10079,3.31843 1.59753,1.6056 2.71511,3.52475 3.14142,5.77261 0.57286,1.7836 1.36303,3.48661 2.01482,5.24247 0.62042,2.14262 1.41337,4.23281 2.12024,6.34787 0.79103,2.74185 1.77748,5.42552 2.40673,8.2148 0.88791,2.78801 1.8537,5.56857 3.15283,8.19489 1.422,3.12231 3.15729,6.0959 4.59789,9.21095 0.98177,2.38768 1.63211,4.89271 2.60299,7.2869 0.85094,2.08826 1.7592,4.14042 2.73317,6.17521 0.80259,2.11949 1.56257,4.24306 1.85771,6.50563 0.45522,2.41779 0.49577,4.91273 1.26155,7.27515 0.54575,2.14855 0.93998,4.34631 1.07111,6.56007 0.25282,2.07813 0.78741,4.09933 1.0251,6.17463 0.30597,2.3894 0.91916,4.71143 1.27672,7.08969 0.44591,2.53212 0.88324,5.05184 1.19294,7.60467 0.41623,2.1557 0.66715,4.31657 0.98234,6.48962 0.43663,2.70008 0.47997,5.42282 0.84662,8.13203 0.3978,2.52211 0.90005,5.0207 1.13272,7.56721 0.3836,2.74766 0.42088,5.50777 0.7634,8.26006 0.45464,2.76632 1.20156,5.46851 2.01466,8.14813 0.90344,2.357 1.84363,4.69563 2.32611,7.18692 0.72589,2.47175 1.644,4.88572 2.47484,7.32345 0.8176,2.65153 1.70861,5.28028 2.56034,7.92049 0.71082,2.32258 1.89731,4.45846 2.44807,6.83088 0.60951,2.19727 0.96788,4.4897 1.24684,6.74868 0.29346,2.63345 0.78704,5.24928 0.68159,7.90958 0.1057,3.07267 0.21696,6.15173 0.68977,9.19517 0.42926,2.78451 0.78694,5.57291 1.25487,8.3513 0.38947,2.10446 0.47576,4.25488 0.93926,6.35062 0.31403,2.12192 0.0999,4.27642 0.1468,6.4164 -0.0183,2.61972 -0.0522,5.23926 -0.0793,7.8589 -0.0816,2.40829 -0.15482,4.84346 -0.73382,7.19434 -0.52561,1.96814 -0.90075,3.95042 -1.20269,5.96809 -0.0104,2.24325 -0.0304,4.48646 -0.0337,6.72973 0.0112,2.08328 0.0201,4.16917 0.14054,6.24942 0.17485,1.93504 0.49469,3.84644 1.37644,5.60303 0.82716,1.78806 1.34435,3.69026 2.22937,5.45138 0.84965,1.98505 1.03769,4.13167 1.19496,6.27195 -0.25381,2.04429 -0.68661,4.05541 -1.8701,5.78769 -0.97113,1.80915 -2.39374,3.32156 -3.26492,5.20014 -0.96213,1.67728 -2.22378,3.13407 -3.30027,4.7313 -0.97274,1.44136 -1.77556,2.97261 -2.86818,4.32499 -0.98717,1.88682 -1.99179,3.73514 -3.14456,5.53004 -1.34589,2.26265 -3.02508,4.27474 -4.78729,6.2254 -2.03549,1.98126 -3.90369,4.11458 -6.02458,6.01139 -1.81134,1.72038 -3.53523,3.49836 -5.26883,5.29012 0,0 -13.71375,5.90977 -13.71375,5.90977 z"
       inkscape:connector-curvature="0" />
    <path
       style="opacity:1;fill:#a3a3a3;fill-opacity:1;fill-rule:evenodd;stroke:#a0a0a0;stroke-width:4.1789999;stroke-miterlimit:4;stroke-dasharray:none;stroke-opacity:1"
       id="path4224"
       d="m 186.34872,404.49346 c 2.63361,0.25049 5.23337,0.0192 7.80231,-0.57906 1.38328,-0.58704 2.86675,-0.872 4.22086,-1.53542 0.48326,-0.23677 1.86945,-1.06705 1.40204,-0.80037 -11.49311,6.55764 -14.52536,8.63443 -9.61996,5.35204 3.09788,-2.11656 5.56389,-4.89736 7.75122,-7.91176 1.78564,-2.52819 3.20319,-5.25807 4.33309,-8.13218 0.98294,-2.35882 1.09405,-4.75637 0.86681,-7.25776 -0.18435,-2.17318 -0.78206,-4.28485 -1.44192,-6.35484 -0.6628,-1.99034 -0.86195,-4.08169 -1.31462,-6.12097 -0.42936,-1.91077 -1.45556,-3.56282 -2.36753,-5.26625 -0.85271,-1.65863 -1.79864,-3.23542 -3.05778,-4.6147 -1.40297,-1.12909 -2.77521,-2.3089 -4.28177,-3.30217 -1.26848,-1.27228 -2.80028,-2.31071 -3.93579,-3.70839 -1.0702,-1.48408 -1.6044,-2.92082 -1.65149,-4.74842 -0.10808,-2.19287 0.43425,-4.19516 1.29416,-6.18382 1.1086,-2.18985 2.47411,-4.21834 3.99926,-6.13546 1.58843,-1.97928 3.47027,-3.68505 5.24221,-5.49296 1.59933,-1.70243 3.56636,-2.96812 5.48264,-4.27515 2.2232,-1.32158 4.25364,-2.90947 6.13837,-4.67352 2.52272,-2.33974 4.83366,-4.86703 6.97892,-7.55355 1.96252,-2.68259 4.1037,-5.22543 6.2104,-7.79439 1.64109,-2.07721 3.02935,-4.30664 4.08396,-6.73207 1.30495,-3.58314 1.30052,-7.4765 1.3751,-11.24457 0.1341,-3.08346 -0.12021,-6.15162 -0.6891,-9.18105 -0.52832,-2.82398 -1.41109,-5.58183 -2.43276,-8.26383 -0.86322,-2.32948 -1.88045,-4.58732 -3.25475,-6.65908 -1.12315,-1.97905 -2.73131,-3.59277 -4.03649,-5.44281 -1.39627,-1.49597 -2.58015,-3.1428 -3.68892,-4.85718 -1.12014,-1.86686 -1.7954,-3.96846 -2.40544,-6.04831 -0.35262,-2.02742 -0.23555,-4.12698 0.23957,-6.12377 0.64006,-2.27705 2.24153,-4.04056 3.78556,-5.75935 2.20974,-2.18892 4.60972,-4.18279 7.04277,-6.11772 2.60028,-2.14283 5.28392,-4.18158 7.86856,-6.34317 2.72735,-2.26926 5.68866,-4.2212 8.44845,-6.45064 2.63836,-2.04374 4.85305,-4.50904 6.90676,-7.12117 1.98952,-2.5721 3.57991,-5.42002 5.08674,-8.29249 1.25687,-2.31627 2.04756,-4.82476 2.82223,-7.32967 0.87225,-2.88614 1.47738,-5.84246 2.27265,-8.75097 0.71486,-2.66343 1.69414,-5.23609 2.78025,-7.76651 1.01029,-2.36186 2.22128,-4.61868 3.59231,-6.78854 1.42126,-2.597 3.06449,-5.04379 4.70909,-7.50023 1.45611,-2.54936 3.17171,-4.91625 5.05679,-7.16113 1.71564,-2.1414 3.8032,-3.90073 5.8882,-5.66172 2.70586,-2.42996 5.74561,-4.44387 8.71937,-6.52379 7.38508,-5.23881 15.41337,-9.42629 23.28619,-13.87185 2.76037,-1.30692 5.59049,-2.5224 8.49134,-3.48037 2.5448,-0.85115 5.05834,-1.58641 7.72581,-1.91909 2.617,-0.31021 5.23461,-0.75421 7.76084,-1.52359 3.01462,-0.92974 6.12362,-1.5229 9.14191,-2.4335 2.54161,-0.7833 5.17262,-1.27918 7.69231,-2.12513 2.53926,-0.7345 5.09422,-1.38858 7.70627,-1.82266 2.39534,-0.38222 4.82,-0.4115 7.23867,-0.43098 2.52987,-0.021 5.02721,0.5634 7.47103,1.16799 2.40896,0.65967 4.87478,1.17531 7.17447,2.17083 2.58538,1.0283 5.2918,1.6751 7.94912,2.47497 2.62319,0.72504 5.29398,1.28525 7.90011,2.06783 2.78053,0.74624 5.61221,1.28573 8.3959,2.014 2.93153,0.54144 5.78552,1.36109 8.63976,2.20692 2.84098,0.92274 5.54228,2.10217 8.11079,3.62737 2.71534,1.40208 5.35095,2.92843 8.14531,4.17353 2.64604,1.17502 5.33925,2.2466 8.06332,3.22915 2.49964,1.02412 4.97618,2.11776 7.52134,3.02314 2.33746,1.03733 4.82412,1.63965 7.26912,2.35737 2.34841,0.71686 4.39059,1.99227 6.46036,3.26649 2.00402,1.22692 3.93916,2.60951 6.05029,3.64966 1.59329,0.89282 3.07621,1.88672 4.33165,3.21807 1.26292,1.63394 2.26823,3.44966 3.07425,5.34644 0.86038,1.98721 1.60319,4.03069 2.24864,6.09787 0.78849,2.24846 1.4648,4.54482 1.99919,6.86756 0.59103,2.4207 1.34765,4.79271 2.03236,7.18662 0.54394,1.94191 1.33615,3.78557 2.0322,5.67162 0.844,1.80721 1.33498,3.71182 1.62208,5.67689 0.16271,1.78483 0.69234,3.50122 0.95958,5.27246 0.10019,1.95627 0.52807,3.86278 0.8495,5.78871 0.44758,1.76981 1.26984,3.39805 1.79252,5.14457 0.60213,2.05861 1.70829,3.89862 2.77433,5.73977 1.42064,2.20023 2.82143,4.40972 4.09168,6.70196 1.30183,2.02061 2.06202,4.28725 2.83321,6.54334 0.71907,1.8206 0.52921,3.70293 0.36114,5.59715 -0.26926,1.67977 -0.79528,3.291 -1.04368,4.97871 -0.089,1.99206 -0.49177,3.938 -0.81917,5.89868 -0.31496,1.97633 -0.38411,3.97829 -0.42878,5.97537 -0.0686,2.07117 -0.90026,3.99964 -1.39655,5.98948 -0.31862,1.8951 -0.94716,3.70937 -1.31851,5.59241 -0.34044,2.13378 -0.25773,4.29958 -0.40467,6.44762 -0.38756,2.047 -0.66057,4.107 -0.81132,6.18425 -0.12132,2.02525 -0.1259,4.05494 -0.13198,6.08307 -0.15292,2.46973 0.21801,4.9065 0.52745,7.3479 0.15225,2.18938 0.47158,4.3373 0.86427,6.49353 0.24014,2.0344 0.60142,4.03446 0.99349,6.04382 0.46845,2.26979 0.86124,4.56036 1.36776,6.82244 0.41796,1.85275 1.22382,3.59186 2.08219,5.27632 1.07039,1.51284 2.1356,3.02811 3.21817,4.53266 1.33103,1.88485 2.21102,4.02805 3.27748,6.06498 1.10253,1.93012 1.39193,4.13204 1.8836,6.26289 0.28612,2.02053 0.98233,3.93553 1.44648,5.91395 0.4228,1.97378 0.5235,3.96791 0.26786,5.96599 -0.39773,2.03989 -0.50485,4.11702 -0.79079,6.1708 -0.4292,2.24212 -0.71464,4.50299 -0.87224,6.77928 0.0171,1.86419 -0.49527,3.65987 -0.79261,5.48468 -0.39943,1.88166 -0.0397,3.73701 0.22644,5.6045 0.16984,2.27836 0.41882,4.52731 0.80957,6.77929 0.42968,2.09163 0.42981,4.23333 0.68846,6.34365 0.36004,1.95032 0.56164,3.93949 1.31774,5.78623 0.64266,1.60937 1.31358,3.20977 1.90453,4.83967 0.58992,1.8203 0.68427,3.73837 0.75581,5.63519 0.11328,1.80015 -0.18575,3.58835 -0.82354,5.26947 -0.63097,1.64909 -1.15062,3.33972 -1.69202,5.02022 -0.78261,1.67055 -1.12484,3.48044 -1.60938,5.24699 -0.49637,2.19878 -0.64779,4.42432 -1.46322,6.53988 -0.61315,1.61454 -1.30069,3.19849 -2.61258,4.35642 -8.4507,8.38382 -10.92841,6.11821 -18.159,8.63461 -4.98415,2.49962 -13.57951,7.70241 8.15081,-4.81462 0,0 -13.78453,5.3576 -13.78453,5.3576 l 0,0 c 5.30824,-3.09651 11.18752,-7.3757 17.33472,-9.57003 5.93621,-1.47237 14.67154,-5.04748 -7.42704,5.72791 1.6764,-0.55165 2.48431,-1.88494 3.05884,-3.50852 0.27377,-0.5918 0.62265,-1.1524 0.8357,-1.76866 0.50617,-1.46418 0.3387,-3.08248 0.76458,-4.56779 0.37795,-1.8241 0.73574,-3.68455 1.45282,-5.41018 0.77484,-1.57394 1.06599,-3.35769 1.65115,-5.00848 0.65225,-1.50564 1.26986,-3.05966 1.16044,-4.74234 -0.0517,-1.74656 -0.0989,-3.51714 -0.59246,-5.20656 -0.56002,-1.62086 -1.22264,-3.2046 -1.82861,-4.80798 -0.78601,-1.96444 -1.10949,-4.02909 -1.46083,-6.10676 -0.35945,-2.09434 -0.23545,-4.24314 -0.63747,-6.33854 -0.36881,-2.25897 -0.73503,-4.50238 -0.87419,-6.79018 -0.27508,-1.97953 -0.77944,-3.95026 -0.45001,-5.95565 0.21982,-1.82955 0.7851,-3.58517 0.90193,-5.41502 0.14143,-2.31611 0.39575,-4.62152 0.83674,-6.90167 0.33496,-2.03616 0.3148,-4.11889 0.74512,-6.14568 0.3172,-1.83512 0.34767,-3.62905 -0.0476,-5.46757 -0.41825,-1.99314 -1.10375,-3.91861 -1.35435,-5.94818 -0.46729,-1.99857 -0.79328,-4.06631 -1.7585,-5.90032 -1.03906,-1.96723 -1.74568,-4.11004 -3.07287,-5.91388 -1.19567,-1.53642 -2.47142,-3.01601 -3.49147,-4.67987 -0.88509,-1.80591 -1.68169,-3.67831 -2.1285,-5.64587 -0.5494,-2.26195 -0.91405,-4.57477 -1.44663,-6.83965 -0.39943,-2.01752 -0.83116,-4.00767 -0.99783,-6.06363 -0.40361,-2.1988 -0.78317,-4.37084 -0.83141,-6.61598 -0.27267,-2.48325 -0.77882,-4.95217 -0.69905,-7.45817 0.003,-2.0571 0.003,-4.11525 0.0993,-6.17059 0.12172,-2.10173 0.3276,-4.19742 0.73645,-6.26527 0.45923,-2.11268 0.10622,-4.32956 0.42399,-6.47098 0.19491,-1.97818 0.87699,-3.78417 1.2866,-5.70931 0.40725,-1.93169 1.05885,-3.78191 1.50538,-5.70182 0.0299,-2.0554 0.0736,-4.11551 0.34076,-6.15657 0.28302,-1.94887 0.80732,-3.85596 0.80675,-5.83531 0.1607,-1.68234 0.41349,-3.35194 1.06105,-4.92651 0.13234,-1.69428 0.51962,-3.44645 -0.0184,-5.09859 -0.71505,-2.18606 -1.39366,-4.39953 -2.63217,-6.36096 -1.22908,-2.30829 -2.68995,-4.45778 -4.12412,-6.63963 -1.11995,-1.94557 -2.31749,-3.8637 -3.01477,-6.01533 -0.50489,-1.82045 -1.42403,-3.47054 -1.85911,-5.31306 -0.2994,-1.93452 -0.82455,-3.82839 -0.8986,-5.79163 -0.24132,-1.78496 -0.78657,-3.50681 -0.93739,-5.29997 -0.2254,-1.87366 -0.64262,-3.69127 -1.50372,-5.38745 -0.66731,-1.94034 -1.42953,-3.84105 -2.00808,-5.81343 -0.63162,-2.43193 -1.38144,-4.83009 -2.00187,-7.26574 -0.54022,-2.28367 -1.2366,-4.53468 -2.03653,-6.73985 -0.59122,-2.03135 -1.33726,-4.0266 -2.18048,-5.96516 -0.70453,-1.7352 -1.65237,-3.3686 -2.8521,-4.81128 -1.20453,-1.14514 -2.57018,-2.07194 -4.01115,-2.89836 -2.06368,-1.18517 -4.06388,-2.48433 -6.07699,-3.75201 -1.9626,-1.24644 -4.02453,-2.26025 -6.26019,-2.93233 -2.43567,-0.7631 -4.89226,-1.45707 -7.23864,-2.47836 -2.53209,-0.95294 -5.03097,-1.99287 -7.52879,-3.03198 -2.72427,-1.06171 -5.45821,-2.10142 -8.11109,-3.33515 -2.7707,-1.35586 -5.4641,-2.84637 -8.18548,-4.29663 -2.52905,-1.41178 -5.21232,-2.43296 -7.96676,-3.32055 -2.81966,-0.86912 -5.68665,-1.54459 -8.57057,-2.16485 -2.82803,-0.66136 -5.66892,-1.27055 -8.47624,-2.01893 -2.62083,-0.70097 -5.25346,-1.35778 -7.86415,-2.09707 -2.72771,-0.74479 -5.4424,-1.55133 -8.08582,-2.56023 -2.30032,-0.83655 -4.70404,-1.35865 -7.06587,-1.99236 -2.3766,-0.56473 -4.81042,-0.95426 -7.26158,-0.85804 -2.36214,0.0583 -4.73072,0.17079 -7.05985,0.59734 -2.57904,0.51076 -5.10917,1.22834 -7.6299,1.97186 -2.54867,0.6806 -5.09818,1.35739 -7.64444,2.04726 -3.05075,0.76959 -6.09972,1.54593 -9.12187,2.42379 -2.61088,0.67186 -5.27393,1.11796 -7.95022,1.44056 -2.56723,0.45701 -5.02846,1.28986 -7.50141,2.10459 -2.80728,1.08189 -5.61788,2.16971 -8.29912,3.54315 22.6106,-13.23403 6.20502,-3.87588 1.26244,-0.39782 -2.82495,2.01539 -5.69295,3.9826 -8.33361,6.22833 -2.05636,1.76838 -4.26389,3.37377 -6.00974,5.47065 -1.92516,2.16319 -3.75316,4.41678 -5.1622,6.95996 -1.4833,2.54898 -3.49113,4.78281 -4.67167,7.52244 -1.41597,2.06357 -2.56916,4.26199 -3.63251,6.52451 -1.08444,2.50875 -2.24078,4.98656 -2.98849,7.62671 -0.75496,2.91831 -1.52497,5.82643 -2.13493,8.77951 -0.8905,2.54694 -1.4966,5.20967 -2.80293,7.59867 -1.57888,2.90809 -3.09171,5.86383 -5.04882,8.54565 -2.04732,2.67338 -4.10955,5.34266 -6.79328,7.42391 -2.73071,2.28762 -5.6298,4.31776 -8.48388,6.43936 -2.53793,2.1955 -5.195,4.23332 -7.78519,6.36518 -2.39744,1.88701 -4.73854,3.83508 -7.02278,5.85937 -1.45884,1.55127 -3.01326,3.10574 -3.92938,5.05536 -0.5561,1.77222 -0.81869,3.56366 -0.65962,5.4349 0.5289,1.94539 1.16903,3.9072 2.1749,5.65923 1.12756,1.68482 2.35097,3.27684 3.67334,4.81357 1.30179,1.85913 2.87826,3.52069 3.99032,5.51373 1.44384,2.164 2.52057,4.51304 3.36547,6.97381 1.04745,2.7605 1.95701,5.59059 2.54611,8.4863 0.63445,3.14064 0.89877,6.34711 0.67913,9.54919 -0.14505,3.86502 -0.16997,7.81348 -0.93259,11.60339 -0.97668,2.6215 -2.34246,4.94848 -4.00798,7.19513 -2.14697,2.55339 -4.31335,5.10404 -6.28778,7.79003 -2.10994,2.69113 -4.24679,5.36034 -6.80862,7.64536 -1.71715,1.92774 -3.72645,3.57747 -5.91513,4.95024 -1.97164,1.16513 -3.85574,2.50569 -5.62329,3.95969 -1.75511,1.82866 -3.63819,3.50574 -5.32318,5.39729 -1.53939,1.80537 -2.90329,3.70915 -4.06962,5.77708 -0.9391,1.76676 -1.65351,3.50164 -1.50391,5.54392 -0.0341,1.654 0.1781,2.46528 1.17329,3.84024 1.07908,1.25097 2.42703,2.2975 3.64276,3.40626 1.57045,1.10424 3.11686,2.24484 4.50342,3.57844 1.32526,1.4805 2.25923,3.20709 3.21925,4.93729 0.97583,1.82141 2.0263,3.60064 2.54253,5.62577 0.45802,2.00243 0.67697,4.03929 1.23961,6.01752 0.68679,2.1711 1.35269,4.37899 1.5469,6.6578 0.25483,2.68938 0.3851,5.31462 -0.64018,7.88681 -1.09024,3.01803 -2.50038,5.85674 -4.29848,8.52272 -2.13726,3.11109 -4.50512,6.05696 -7.53169,8.35589 -6.38033,4.7674 -13.39333,9.17155 -21.17149,11.12407 -2.74541,0.42939 -5.4996,0.52977 -8.2755,0.5775 0,0 12.11648,-8.80314 12.11648,-8.80314 z"
       inkscape:connector-curvature="0" />
    <path
       style="opacity:1;fill:#a3a3a3;fill-opacity:1;fill-rule:evenodd;stroke:#a0a0a0;stroke-width:4.1789999;stroke-miterlimit:4;stroke-dasharray:none;stroke-opacity:1"
       id="path4228"
       d="m 204.41969,413.31857 c 1.95955,-0.29692 3.78648,-1.17745 5.49295,-2.15997 -21.58232,13.73429 -11.78706,6.5504 -6.82508,3.45695 1.895,-1.28305 3.50219,-2.93152 5.25204,-4.40145 1.89502,-1.51139 3.52812,-3.30268 5.27943,-4.9699 1.50477,-1.65329 3.17508,-3.14009 4.74407,-4.72943 1.50172,-1.48616 2.87303,-3.09264 4.32649,-4.62406 1.03819,-1.30489 2.03907,-2.63947 3.05674,-3.96105 1.18813,-1.43534 1.90989,-3.14626 2.74985,-4.78662 0.85439,-1.58144 1.07928,-3.34161 1.21799,-5.10418 0.1216,-1.96043 0.1617,-3.91203 -0.13955,-5.85529 -0.15719,-1.77741 -0.65453,-3.38321 -1.48947,-4.94223 -1.00647,-1.606 -1.78003,-3.35158 -2.42366,-5.13084 -0.7485,-1.98202 -1.46275,-3.98165 -2.08586,-6.00717 -0.87424,-2.18151 -1.47348,-4.50038 -2.61369,-6.56199 -1.13954,-1.79344 -2.11848,-3.66246 -2.98749,-5.60034 -0.86656,-2.01172 -1.18782,-4.11564 -1.01997,-6.28622 0.27584,-2.60223 1.74159,-4.49896 3.45549,-6.34579 1.7063,-1.70453 3.7739,-2.9565 5.59331,-4.52882 4.60607,-3.63977 10.37516,-6.28287 15.19178,-9.07699 0.30373,-0.17619 1.21585,-0.70316 0.91151,-0.52802 -11.90114,6.84897 -15.49825,9.07345 -10.71378,6.13153 8.27091,-5.04599 27.69152,-15.70833 2.8514,-1.67163 -0.30203,0.17067 0.57964,-0.38194 0.85879,-0.58792 0.71657,-0.52872 1.06595,-0.86032 1.74154,-1.45165 1.77209,-1.46976 3.06724,-3.36297 4.4054,-5.20806 1.21607,-1.58463 2.08514,-3.37852 2.8069,-5.23111 0.65295,-1.99294 1.72419,-3.79513 2.7315,-5.6191 0.87787,-1.62081 1.57626,-3.32805 2.30588,-5.0185 0.79378,-1.53472 1.35361,-3.09751 1.73735,-4.7802 0.577,-1.82326 0.88588,-3.69734 1.05359,-5.59703 0.29797,-2.01697 0.71736,-4.00701 0.93399,-6.03664 0.32139,-1.99117 -0.0573,-3.94323 -0.34835,-5.90762 -0.15181,-2.33688 -0.65544,-4.62329 -0.96317,-6.94005 -0.46805,-2.34979 -0.90225,-4.7069 -1.5071,-7.02597 -0.87591,-2.04521 -1.27331,-4.21391 -1.81325,-6.353 -0.56759,-1.84375 -0.79336,-3.75568 -1.34098,-5.602 -0.42896,-1.81443 -0.98948,-3.5937 -1.38414,-5.41653 -0.49852,-2.06138 -0.29538,-4.12732 0.10769,-6.18033 0.43695,-1.78984 1.38068,-3.36801 2.27446,-4.95433 0.93848,-1.6978 1.66082,-3.50287 2.30036,-5.33118 0.698,-1.99835 1.4,-3.99671 2.03967,-6.01468 0.54211,-1.97038 1.40749,-3.79758 2.38244,-5.58286 0.94452,-1.61866 2.00666,-3.14413 2.83008,-4.83191 0.99016,-1.76372 1.27628,-3.738 1.63493,-5.69233 0.49681,-1.96181 0.78612,-3.95688 0.94327,-5.97159 0.0612,-2.10954 0.49195,-4.18451 1.06252,-6.20907 0.48002,-2.01286 1.09692,-3.9912 1.55559,-6.00897 0.30727,-2.02004 0.54328,-4.03834 0.92793,-6.04728 0.33474,-2.08494 0.87844,-4.13309 1.51447,-6.14475 0.64982,-2.25065 2.04764,-4.07116 3.56262,-5.80249 1.46547,-1.40539 2.63262,-3.07645 3.95063,-4.61293 1.19798,-1.38053 2.34206,-2.81105 3.68475,-4.05569 1.69674,-1.47659 3.69829,-2.53118 5.59758,-3.71614 7.61712,-4.80473 31.11841,-17.88696 5.08412,-3.00304 4.48449,-2.58891 8.96897,-5.17782 13.45346,-7.76673 0.27765,-0.10898 1.09049,-0.47743 0.83296,-0.32694 -3.98688,2.32977 -15.97862,9.26338 -12.02967,6.86985 4.41199,-2.67418 8.93066,-5.16857 13.41925,-7.7121 2.75972,-1.56383 -37.60175,21.61326 1.50906,-0.85129 1.79378,-0.85683 2.93777,-1.44633 4.94841,-1.75669 1.93385,-0.33114 3.82899,-0.8079 5.79329,-1.01994 1.80081,-0.2361 3.51562,-0.81292 5.33896,-1.02247 1.7858,0.0348 3.42291,-0.63541 5.16821,-0.91206 1.78782,-0.7999 3.77372,-0.81074 5.62447,-1.34712 1.93121,-0.28256 3.7156,-0.98329 5.58657,-1.48006 1.87061,-0.41723 3.6839,-1.06498 5.50786,-1.65766 2.01065,-0.50274 4.04885,-0.7253 6.06595,-1.19375 2.01873,-0.44967 4.08608,-0.56045 6.14625,-0.62824 1.32269,-0.20654 2.64485,-0.69383 3.99325,-0.73163 3.2867,-0.0921 -0.85654,0.28354 1.96196,-0.008 1.78493,0.34607 3.62775,0.34931 5.38425,0.80951 2.34968,0.34937 4.56865,1.1331 6.7958,1.92243 2.07469,0.90621 4.05865,1.97216 6.25176,2.56664 1.74261,0.66625 3.45871,1.41895 5.25297,1.93695 1.92994,0.71352 3.86407,1.44883 5.8505,1.99502 2.02573,0.77337 4.11532,1.32246 6.09794,2.20982 2.21964,0.83455 4.47064,1.59517 6.80881,2.02153 2.39832,0.73239 4.86352,1.10811 7.35673,1.29702 2.34802,0.0577 4.72547,0.30437 7.05593,-0.0432 2.46257,-0.39337 4.95911,-0.8127 7.45324,-0.58523 2.26366,0.11647 4.41761,0.72042 6.61473,1.2043 2.05512,0.21247 4.04264,0.68956 6.06611,1.08351 1.94103,0.83233 4.06241,0.96612 6.06926,1.52932 2.15183,0.4439 4.21603,1.09786 6.14124,2.16258 2.08143,0.9857 3.93031,2.36979 5.84323,3.63325 1.90183,1.26366 3.8043,2.55404 5.78841,3.68925 2.017,1.34333 4.32632,2.11694 6.49518,3.16477 2.07196,1.02784 3.65756,2.71262 5.36467,4.22014 1.38975,1.39182 2.2209,3.1702 2.7868,5.02743 0.77728,1.67509 1.13649,3.4607 1.47147,5.26166 0.54345,2.11965 0.82798,4.22805 0.63737,6.40732 -0.28462,1.85911 -0.91863,3.62707 -1.60755,5.36676 -0.74623,1.86208 -1.59017,3.67916 -2.32935,5.54419 -0.85546,1.84522 -1.25764,3.81312 -1.47573,5.82069 -0.26182,1.80742 -0.66889,3.60306 -1.1727,5.35911 -0.55553,2.22697 -1.37206,4.37226 -2.18449,6.51433 -0.95067,2.33934 -1.33525,4.83741 -1.92745,7.27691 -0.42872,1.92231 -0.71094,3.85861 -1.22371,5.76169 -0.356,1.84367 -0.8481,3.65714 -1.22695,5.49588 -0.26681,2.0156 -0.50123,4.02151 -0.88204,6.02066 -0.38808,1.96539 -0.50786,3.96549 -0.57902,5.96294 -0.0751,1.96183 0.0669,3.92675 -0.24309,5.871 -0.20192,1.66481 -0.78048,3.22516 -1.24053,4.82428 -0.44978,1.7861 -0.50581,3.63496 -0.55716,5.46648 -0.061,2.45949 -0.0673,4.91961 -0.0911,7.37961 -0.009,2.58187 0.0585,5.16329 0.0361,7.74505 -0.004,2.30624 -0.0776,4.60518 0.26075,6.89094 0.23412,2.08281 0.83771,4.08898 1.26127,6.13479 0.39196,2.03189 0.47299,4.10236 0.52391,6.16537 0.0806,2.16028 -0.0827,4.32245 0.0783,6.47832 0.3732,2.28995 0.6436,4.58279 0.78004,6.89837 0.0885,2.74485 0.0924,5.49136 0.12321,8.23731 0.0391,2.42841 0.0252,4.85689 -0.007,7.28525 -0.0305,2.69703 -0.0116,5.39385 0.0129,8.09084 0.12555,2.21693 -0.0171,4.39434 -0.3717,6.58074 -0.35316,1.97091 -0.48351,3.96827 -0.55827,5.96588 -0.0564,2.01037 -0.0515,4.0218 -0.051,6.03276 0.20214,2.00869 0.59351,3.9893 0.80014,5.99938 0.24612,1.87305 1.01919,3.63188 2.15672,5.13014 0.82546,1.3905 1.87494,2.64083 2.68857,4.03226 1.45855,2.33272 1.97266,5.08082 2.74887,7.68492 0.80095,2.46565 1.58639,4.93601 2.4871,7.36738 0.77356,2.01923 1.06363,4.1489 1.16263,6.29457 0.079,2.27325 0.0839,4.54818 0.0885,6.82253 0.10684,2.11885 -0.0589,4.1976 -0.40735,6.28441 -0.3593,1.97018 -0.48819,3.96819 -0.56286,5.96598 0.0903,2.15661 -0.54285,4.1931 -1.15472,6.2283 -0.71986,1.97973 -0.3078,3.75001 0.45228,5.62251 0.64313,1.518 0.29175,0.76057 1.05833,2.27033 0,0 -12.73369,7.28368 -12.73369,7.28368 l 0,0 c -0.8535,-1.57698 -0.45524,-0.79432 -1.1995,-2.34555 -0.88387,-2.10607 -1.61781,-4.2045 -0.9219,-6.49919 0.54206,-1.94051 1.3888,-3.83293 1.30388,-5.88933 0.0538,-2.05581 0.14119,-4.11572 0.47937,-6.14808 0.345,-2.02355 0.69844,-4.00641 0.53249,-6.0744 0.014,-2.25194 0.0444,-4.50518 -0.0398,-6.75614 -0.12109,-2.00376 -0.27585,-4.01537 -0.9522,-5.92455 -0.84752,-2.4856 -1.64858,-4.98774 -2.40293,-7.50205 -0.73468,-2.47979 -1.24831,-5.07865 -2.77923,-7.22766 -0.85816,-1.32515 -1.8127,-2.5885 -2.61861,-3.94905 -1.20031,-1.75841 -2.10168,-3.73431 -2.49457,-5.8353 -0.17728,-2.05776 -0.52081,-4.08652 -0.86521,-6.12172 -0.002,-2.02504 -0.009,-4.05032 0.0288,-6.07511 0.0538,-2.05527 0.14179,-4.11454 0.48032,-6.1463 0.36166,-2.12972 0.70364,-4.22042 0.54334,-6.39555 0.0247,-2.70245 0.0446,-5.40473 0.0172,-8.10723 -0.0295,-2.42604 -0.0349,-4.85204 0.002,-7.27808 0.0198,-2.71695 0.0244,-5.43562 -0.11629,-8.14987 -0.12644,-2.29248 -0.37754,-4.57242 -0.75857,-6.83734 -0.27023,-2.17405 -0.1482,-4.36632 -0.18966,-6.55408 -0.0312,-1.98472 -0.0727,-3.97749 -0.39761,-5.94045 -0.38822,-2.07778 -1.05197,-4.09061 -1.26993,-6.19956 -0.37961,-2.36637 -0.36953,-4.72105 -0.31572,-7.11604 -0.0245,-2.59129 0.0401,-5.1824 0.0234,-7.77381 -0.0301,-2.44539 -0.0598,-4.89112 -0.0647,-7.33656 0.0255,-1.91475 0.0468,-3.83999 0.36255,-5.73375 0.33721,-1.63339 1.07617,-3.10595 1.27851,-4.76619 0.44547,-1.87971 0.42327,-3.74593 0.40035,-5.67763 0.0505,-2.06322 0.13092,-4.13195 0.48317,-6.16995 0.36505,-2.00286 0.76316,-3.9749 0.87095,-6.01473 0.3135,-1.87704 0.88246,-3.68436 1.14235,-5.56868 0.47928,-1.93249 1.06028,-3.80921 1.32085,-5.79476 0.63873,-2.48677 1.07552,-5.02156 1.92754,-7.45063 0.74647,-2.10804 1.57437,-4.17943 2.09799,-6.35386 0.48309,-1.70082 0.84154,-3.41569 1.31383,-5.12148 0.16301,-2.12676 0.44989,-4.2498 1.29766,-6.22845 0.78498,-1.81035 1.42041,-3.68162 2.29238,-5.45614 0.56948,-1.69958 1.39794,-3.28111 1.77832,-5.05045 0.26522,-2.05512 0.30863,-3.99414 -0.36605,-6.00143 -0.45303,-1.73284 -0.67797,-3.52394 -1.46306,-5.16111 -0.44635,-1.62215 -1.18207,-3.13004 -2.38585,-4.33286 -1.53888,-1.48489 -3.05319,-3.01819 -5.05613,-3.8776 -2.22137,-1.00725 -4.47165,-1.96942 -6.52031,-3.31011 -2.00193,-1.20066 -4.03363,-2.363 -5.93397,-3.72207 -1.81603,-1.29829 -3.67038,-2.54941 -5.70348,-3.49052 -1.91061,-0.87758 -3.93088,-1.40535 -5.97942,-1.86161 -2.03499,-0.41783 -4.04578,-0.89567 -6.03991,-1.48038 -2.01943,-0.42872 -4.0567,-0.70963 -6.07896,-1.1196 -2.11096,-0.50498 -4.23471,-0.92932 -6.41228,-1.01408 -2.46387,0.034 -4.88625,0.44832 -7.32801,0.74283 -2.40381,0.112 -4.81121,0.0274 -7.20824,-0.18546 -2.52497,-0.26964 -4.98723,-0.79537 -7.44467,-1.43281 -2.39596,-0.53757 -4.73897,-1.32778 -7.02481,-2.21903 -1.98387,-0.76254 -4.01487,-1.38542 -6.02564,-2.07174 -1.97427,-0.63332 -3.93022,-1.32333 -5.89093,-1.99699 -1.75687,-0.60177 -3.48533,-1.28248 -5.21686,-1.95252 -2.14208,-0.74684 -4.13662,-1.82493 -6.25365,-2.63755 -2.19255,-0.7832 -4.43046,-1.37504 -6.73944,-1.70498 -1.71734,-0.23321 -3.45259,-0.48999 -5.18619,-0.48971 -2.00786,0.0122 -3.93192,0.54465 -5.92688,0.70432 -2.01503,0.12139 -4.02309,0.33771 -5.98668,0.82744 -1.9958,0.42516 -4.05172,0.58922 -5.9772,1.31217 -1.84054,0.61828 -3.71238,1.14064 -5.58574,1.64853 -1.83758,0.57878 -3.71813,0.93905 -5.59047,1.38999 -1.92666,0.36036 -3.81654,0.82561 -5.70926,1.32895 -1.72181,0.38333 -3.42785,0.73442 -5.1932,0.85762 -1.77569,0.32907 -3.50755,0.87437 -5.32112,0.97881 -1.93401,0.30624 -3.82705,0.79879 -5.75308,1.1478 -1.65588,0.48452 -3.15371,1.31653 -4.69487,2.0783 3.97136,-2.30021 15.88967,-9.19354 11.91409,-6.90062 -4.48479,2.5866 -8.97896,5.15726 -13.44172,7.78168 -3.98813,2.34531 16.11277,-9.09767 12.0178,-6.94432 -4.57034,2.40333 -8.96098,5.13391 -13.44495,7.69479 -0.24929,0.14238 -1.00299,0.55906 -0.7547,0.41493 3.96359,-2.30081 7.93388,-4.59007 11.90082,-6.88511 -4.49719,2.58394 -8.98983,5.17583 -13.49158,7.75183 -8.51653,4.87333 16.80513,-10.40115 8.33095,-4.71319 -1.92661,1.07567 -3.77084,2.29666 -5.65799,3.43938 -1.38571,1.16127 -2.5298,2.46447 -3.73068,3.79984 -1.23966,1.64594 -2.68293,3.13918 -3.93423,4.78086 -1.63294,1.42566 -3.06607,3.12176 -3.86256,5.16278 -0.62408,1.96314 -1.26883,3.93665 -1.58188,5.97707 -0.36976,2.0234 -0.768,4.01792 -0.91638,6.07445 -0.39231,2.07077 -1.07766,4.05347 -1.51362,6.11314 -0.56939,1.92987 -1.13956,3.89427 -1.18839,5.91995 -0.11968,2.07421 -0.32545,4.14616 -0.85506,6.16211 -0.49096,2.00527 -0.50512,4.13596 -1.47043,6.01719 -0.83058,1.6865 -1.55325,3.42194 -2.80593,4.86128 -0.88045,1.76918 -2.00054,3.40945 -2.53005,5.33749 -0.56571,2.04445 -1.30563,4.04001 -2.01685,6.03635 -0.54593,1.89215 -1.25684,3.76224 -2.15109,5.5144 -0.71725,1.62385 -1.89505,2.98983 -2.41072,4.71405 -0.68573,1.75435 -0.79319,3.70777 -0.44759,5.55243 0.35751,1.79325 0.9745,3.50658 1.36723,5.2902 0.54633,1.87724 0.76312,3.80688 1.29198,5.69072 0.546,2.13564 0.88801,4.32311 1.79967,6.35517 0.60548,2.38319 1.00942,4.79876 1.54253,7.19985 0.32661,2.30181 0.85983,4.56809 1.037,6.88912 0.2914,2.06743 0.80213,4.12069 0.51111,6.21975 -0.16872,2.02359 -0.46044,4.02892 -0.93879,6.00473 -0.11873,1.97396 -0.31255,3.95174 -0.92292,5.84464 -0.5206,1.65357 -0.49129,3.47922 -1.63994,4.90541 -0.60917,1.7768 -1.49439,3.45485 -2.26954,5.16173 -0.85556,1.86967 -2.17496,3.48677 -2.83875,5.45659 -0.61166,1.96564 -1.43948,3.91483 -2.63955,5.59411 -1.28924,1.94602 -2.67452,3.87686 -4.3302,5.53021 -4.87137,4.71817 -8.48326,5.58479 -15.96694,10.13351 -3.8263,2.32569 7.73951,-4.50536 11.62007,-6.73934 0.3305,-0.19027 -0.64618,0.40521 -0.96926,0.60782 -5.58701,3.06825 -0.28373,0.14474 -14.53056,8.4487 -0.30747,0.17921 -1.23507,0.70785 -0.92768,0.5285 3.90949,-2.28096 7.81329,-4.57177 11.73401,-6.83338 0.59713,-0.34444 -2.31803,1.48019 -1.75234,1.09825 -1.18431,0.95089 -0.60039,0.44034 -1.74588,1.53839 -1.24983,1.05128 -2.76573,1.74514 -3.93307,2.89883 -1.67056,1.47546 -3.35021,3.11982 -3.80514,5.38589 -0.26835,1.93822 -0.13615,3.77782 0.64804,5.60692 0.84151,1.91242 1.82873,3.73584 2.90099,5.52695 1.12818,2.17963 1.80045,4.55867 2.78814,6.80332 0.57988,2.01125 1.31054,3.98228 2.06752,5.93196 0.59478,1.71946 1.38764,3.37959 2.3849,4.90287 0.89538,1.70762 1.46902,3.46601 1.64298,5.40132 0.36625,2.04209 0.44332,4.06884 0.3123,6.14382 -0.0841,1.9069 -0.1961,3.84404 -0.9386,5.62936 -0.82652,1.70518 -1.62763,3.41304 -2.61659,5.03554 -1.03259,1.36577 -2.14183,2.64916 -3.06235,4.0938 -1.38175,1.61567 -2.84951,3.17051 -4.37916,4.65104 -1.44715,1.73665 -3.27408,3.08918 -4.70862,4.83507 -1.76855,1.67485 -3.44237,3.42669 -5.25594,5.04967 -1.75513,1.5024 -3.51024,2.97945 -5.16612,4.59139 -6.07069,3.85906 -11.72621,8.12906 -18.42437,11.11508 -1.88718,0.87345 -3.82978,1.56176 -5.86452,2.01201 0,0 11.89293,-9.09401 11.89293,-9.09401 z"
       inkscape:connector-curvature="0" />
  </g>
</svg>
